<?xml version="1.0" standalone="no"?>
<!DOCTYPE svg PUBLIC "-//W3C//DTD SVG 20010904//EN"
 "http://www.w3.org/TR/2001/REC-SVG-20010904/DTD/svg10.dtd">
<svg version="1.0" xmlns="http://www.w3.org/2000/svg"
 width="310.000000pt" height="310.000000pt" viewBox="0 0 310.000000 310.000000"
 preserveAspectRatio="xMidYMid meet">
<metadata>
Created by potrace 1.11, written by Peter Selinger 2001-2013
</metadata>
<g transform="translate(0.000000,310.000000) scale(0.100000,-0.100000)"
fill="#000000" stroke="none">
<path d="M2403 2303 c4 -7 -4 -10 -21 -10 -15 0 -56 -3 -92 -8 -36 -4 -70 -8
-77 -8 -7 0 -10 -4 -7 -9 5 -7 -11 -12 -19 -5 -2 1 -12 -5 -22 -13 -17 -13
-18 -13 -11 0 4 8 0 6 -8 -4 -9 -11 -16 -16 -16 -12 0 5 -6 3 -13 -3 -8 -6
-17 -8 -20 -4 -4 3 -7 1 -7 -6 0 -8 -6 -11 -16 -7 -8 3 -12 2 -9 -4 3 -6 -6
-15 -21 -20 -15 -6 -33 -18 -40 -28 -8 -9 -14 -14 -14 -10 0 10 -100 -91 -100
-102 0 -5 -4 -10 -10 -10 -5 0 -10 -7 -10 -15 0 -9 -7 -18 -15 -21 -8 -4 -15
-13 -15 -20 0 -8 -7 -17 -16 -21 -13 -5 -13 -7 -2 -14 10 -6 8 -9 -7 -9 -15 0
-17 -3 -7 -9 11 -7 11 -9 -2 -14 -9 -4 -16 -16 -16 -27 0 -14 -4 -19 -12 -14
-7 4 -8 3 -4 -5 4 -6 2 -18 -4 -26 -7 -8 -9 -15 -5 -15 4 0 2 -7 -5 -15 -6 -8
-9 -19 -5 -25 3 -5 1 -10 -5 -10 -6 0 -8 -4 -5 -10 3 -5 0 -10 -7 -10 -9 0 -9
-3 2 -10 8 -5 10 -10 5 -10 -6 0 -12 -14 -13 -31 -1 -17 -7 -40 -13 -51 -9
-16 -8 -19 3 -12 10 6 11 5 2 -7 -13 -16 -13 -20 -13 -154 0 -135 3 -177 13
-194 7 -11 6 -12 -5 -6 -11 7 -12 6 -2 -7 7 -8 10 -18 6 -21 -3 -4 0 -7 8 -7
11 0 11 -2 -1 -10 -9 -6 -10 -10 -3 -10 6 0 10 -9 8 -20 -2 -11 1 -20 7 -20 6
0 8 -9 5 -20 -3 -11 0 -20 6 -20 6 0 7 -3 4 -7 -4 -3 -3 -11 1 -17 5 -6 14
-30 22 -53 7 -24 17 -43 22 -43 5 0 6 -4 3 -10 -3 -5 -1 -10 5 -10 6 0 8 -4 5
-10 -3 -5 -1 -10 4 -10 6 0 11 -6 11 -13 0 -7 9 -23 19 -34 11 -12 17 -24 14
-27 -4 -3 -1 -6 5 -6 6 0 14 -9 17 -20 4 -11 11 -18 16 -15 5 4 9 2 9 -3 0
-14 64 -82 77 -82 6 0 14 -7 17 -16 4 -9 9 -14 12 -11 4 3 12 1 20 -6 33 -29
41 -34 58 -31 10 1 15 0 12 -3 -8 -8 42 -33 65 -33 11 0 19 -4 19 -9 0 -6 8
-10 18 -10 49 -2 72 -6 72 -11 0 -3 30 -7 66 -8 36 -1 70 -4 75 -8 5 -3 9 -1
9 3 0 5 18 8 40 6 22 -1 42 3 46 8 4 6 11 6 20 -2 11 -9 14 -9 14 1 0 8 3 10
7 7 3 -4 12 -2 20 4 7 6 13 8 13 4 0 -4 7 -2 15 5 8 7 15 9 15 5 0 -4 7 -2 15
5 9 7 18 10 21 7 3 -3 14 2 25 11 11 9 23 17 27 17 4 0 15 6 25 15 10 8 20 14
22 13 3 -2 20 13 39 32 19 18 37 31 40 28 3 -4 6 2 6 12 0 10 3 15 6 12 4 -3
15 5 26 18 19 24 19 24 -9 56 -15 18 -39 44 -53 58 -14 14 -24 29 -22 34 1 4
-8 0 -22 -10 -13 -10 -22 -21 -19 -25 2 -5 0 -8 -6 -8 -6 0 -24 -13 -40 -29
-16 -16 -32 -26 -35 -23 -3 3 -6 0 -6 -7 0 -7 -4 -10 -9 -7 -5 4 -11 2 -13 -3
-1 -5 -10 -11 -18 -13 -8 -2 -18 -7 -22 -12 -3 -5 -14 -11 -22 -13 -28 -5 -51
-11 -51 -13 0 -4 -46 -10 -97 -13 -32 -2 -58 0 -58 3 0 3 -13 5 -30 4 -16 -1
-30 1 -30 6 0 4 -8 7 -17 7 -23 -1 -123 43 -123 54 0 5 -6 9 -12 9 -14 0 -68
43 -68 53 0 4 -13 20 -29 36 -16 17 -32 39 -36 51 -4 11 -11 17 -17 14 -7 -5
-8 -2 -4 5 5 7 0 21 -10 32 -9 10 -14 19 -10 19 3 0 -2 17 -13 39 -11 21 -17
41 -14 45 4 3 0 6 -8 6 -11 0 -11 2 1 10 12 8 12 10 1 10 -8 0 -12 3 -8 6 3 4
-1 20 -9 36 -9 17 -11 27 -5 24 6 -4 11 -3 11 3 0 5 -4 12 -8 15 -5 3 -8 15
-7 28 1 13 -2 31 -7 41 -6 11 -5 17 2 17 7 0 8 6 0 19 -7 14 -7 22 0 26 6 4 7
12 3 18 -11 17 -10 31 2 39 6 5 6 8 -2 8 -9 0 -10 7 -3 25 7 17 6 25 -1 25 -8
0 -8 4 -2 13 5 6 9 24 8 40 0 15 4 27 10 27 5 0 3 5 -5 10 -9 6 -10 10 -3 10
6 0 12 8 12 18 1 39 5 52 14 52 6 0 8 3 4 6 -3 4 0 22 8 40 8 19 15 38 17 42
2 4 7 6 11 4 5 -1 6 2 3 7 -9 14 25 81 37 74 6 -3 7 -1 3 5 -3 6 0 16 7 24 7
7 22 26 35 42 12 16 22 25 22 21 0 -4 9 4 21 19 11 14 27 26 35 26 8 0 14 5
14 11 0 6 7 9 15 5 8 -3 18 0 22 7 11 17 49 45 39 30 -4 -7 -2 -13 3 -13 6 0
11 5 11 11 0 5 4 8 9 4 5 -3 12 -1 15 4 4 5 17 8 31 6 14 -1 25 1 25 5 0 4 15
6 33 5 17 -1 38 3 45 8 6 5 12 6 12 1 0 -5 24 -10 52 -11 29 -1 54 -6 56 -12
2 -5 10 -7 19 -4 11 4 14 2 9 -5 -5 -8 -2 -10 8 -6 9 3 16 1 16 -6 0 -6 4 -9
9 -5 5 3 16 -2 24 -10 9 -8 19 -15 24 -15 4 0 26 -17 48 -37 l40 -38 51 53
c29 28 49 52 45 52 -3 0 0 4 7 8 15 10 5 42 -13 42 -8 0 -23 14 -35 30 -12 17
-28 30 -36 30 -8 0 -14 5 -14 11 0 5 -4 8 -9 5 -5 -3 -14 1 -21 9 -7 8 -19 15
-26 15 -8 0 -14 4 -14 9 0 5 -7 12 -16 15 -9 3 -12 2 -8 -5 3 -6 -3 -5 -15 3
-12 7 -21 16 -21 20 0 4 -7 5 -15 2 -8 -4 -21 -1 -29 5 -7 6 -16 8 -19 4 -4
-3 -13 0 -22 7 -11 9 -15 9 -15 1 0 -7 -5 -9 -12 -4 -7 4 -26 8 -43 8 -16 0
-36 4 -44 9 -9 6 -12 5 -8 -1z"/>
<path d="M490 2272 c0 -5 -13 -7 -30 -4 -23 3 -30 0 -30 -12 0 -10 -4 -14 -10
-11 -7 4 -7 -3 0 -20 7 -18 7 -33 0 -45 -7 -13 -7 -21 0 -25 6 -3 7 -17 4 -30
-3 -13 0 -26 7 -30 8 -5 10 -4 5 3 -4 7 -2 12 3 12 6 0 11 -3 11 -7 0 -5 20
-8 45 -8 25 0 45 3 45 6 0 3 7 6 15 6 8 0 15 -4 15 -9 0 -5 8 -4 18 1 11 6 24
6 32 1 9 -6 17 -5 22 3 6 9 8 9 8 -1 0 -9 5 -10 19 -3 10 6 21 7 25 4 9 -10
66 -11 60 -1 -3 4 0 8 5 8 6 0 11 -3 11 -7 0 -5 20 -8 45 -8 25 0 45 3 45 6 0
3 7 6 15 6 8 0 15 -4 15 -9 0 -5 8 -4 18 1 11 6 24 6 32 1 9 -6 17 -5 22 3 6
9 8 9 8 -1 0 -9 5 -10 18 -3 11 6 24 6 35 0 11 -6 24 -6 36 1 13 7 22 7 26 0
3 -5 3 -10 -1 -10 -3 0 0 -7 7 -17 11 -13 11 -17 2 -20 -9 -3 -10 -10 -3 -24
6 -10 7 -19 2 -19 -4 0 -8 -9 -8 -20 0 -11 5 -20 11 -20 6 0 7 -3 0 -8 -6 -4
-10 -55 -10 -117 0 -62 4 -113 10 -117 6 -5 6 -8 -1 -8 -8 0 -9 -11 -4 -35 5
-21 4 -35 -1 -35 -6 0 -5 -9 1 -20 6 -11 7 -20 2 -20 -10 0 -9 -30 2 -48 4 -6
4 -12 -1 -12 -12 0 -10 -384 2 -392 7 -5 6 -8 0 -8 -6 0 -11 -10 -12 -22 -2
-45 -7 -78 -13 -78 -3 0 -7 -9 -8 -20 -4 -44 -6 -50 -15 -50 -6 0 -8 -3 -4 -6
3 -3 2 -11 -3 -18 -6 -6 -21 -26 -36 -43 -14 -18 -30 -33 -36 -33 -5 0 -16 -7
-25 -16 -9 -8 -21 -13 -29 -10 -7 3 -14 1 -16 -4 -3 -9 -112 -27 -128 -21 -3
2 -23 4 -45 5 -64 5 -96 13 -108 25 -6 6 -19 11 -30 11 -10 0 -15 5 -12 10 3
6 0 10 -8 10 -8 0 -20 7 -27 15 -7 8 -16 12 -21 9 -5 -3 -9 4 -9 16 0 12 -4
19 -9 16 -4 -3 -16 3 -26 14 -10 11 -14 20 -10 20 5 0 -6 11 -24 25 l-34 24
-43 -44 c-24 -25 -48 -45 -53 -45 -13 0 -5 -56 11 -75 48 -56 87 -95 96 -95 5
0 13 -7 16 -16 4 -9 9 -14 13 -11 3 4 11 0 17 -8 6 -9 22 -17 35 -20 14 -2 27
-9 31 -15 3 -5 17 -12 30 -14 14 -2 27 -5 30 -6 3 -2 8 -2 13 -1 4 0 7 -3 7
-9 0 -5 7 -7 15 -4 8 4 21 1 29 -5 7 -6 15 -9 17 -6 3 2 21 0 42 -4 23 -6 37
-5 37 1 0 5 4 7 9 3 15 -8 71 -13 71 -5 0 3 10 6 23 5 12 -1 30 2 41 7 14 7
16 7 11 -2 -6 -9 -3 -9 12 -1 11 6 23 7 27 4 3 -3 6 -1 6 6 0 7 7 11 15 8 8
-4 17 -2 20 4 4 5 11 7 16 4 5 -4 9 -1 9 5 0 6 4 9 9 5 5 -3 17 2 25 11 9 8
16 12 16 9 0 -4 15 4 34 18 18 15 37 23 41 19 5 -4 6 -2 2 4 -3 5 5 18 18 28
14 10 22 23 18 29 -4 6 0 8 10 4 9 -3 16 -3 15 1 -3 15 22 62 33 62 7 0 9 3 6
7 -4 3 -2 12 5 20 6 7 8 16 5 20 -4 3 1 12 11 20 9 8 11 11 3 7 -10 -5 -12 -3
-5 7 5 8 9 17 10 22 1 4 3 9 4 12 1 3 3 13 4 23 1 9 5 23 9 30 5 7 3 12 -5 12
-9 0 -10 2 -2 8 7 4 11 31 10 65 0 31 4 59 9 62 6 3 5 7 -3 11 -6 3 -9 11 -5
17 10 17 11 47 1 47 -5 0 -6 6 -2 12 11 18 12 48 2 48 -5 0 -6 6 -2 12 11 18
12 48 2 48 -5 0 -6 6 -2 12 11 18 12 48 2 48 -5 0 -6 6 -2 12 11 18 12 48 2
48 -5 0 -6 6 -2 12 11 18 12 48 2 48 -5 0 -6 6 -2 12 11 18 12 48 2 48 -5 0
-6 5 -2 11 10 16 11 189 1 189 -5 0 -5 6 -1 12 11 18 12 48 2 48 -5 0 -6 6 -2
12 11 18 12 48 2 48 -5 0 -6 6 -2 12 11 18 12 48 2 48 -5 0 -6 6 -2 12 11 18
12 48 2 48 -5 0 -6 6 -2 12 11 18 12 48 2 48 -5 0 -6 6 -2 12 11 18 12 48 2
48 -5 0 -6 6 -1 13 4 6 6 23 4 37 -3 28 -21 53 -21 30 0 -13 -2 -13 -10 0 -7
11 -10 11 -10 2 0 -10 -5 -10 -20 -2 -14 8 -20 8 -20 0 0 -8 -6 -8 -20 0 -14
8 -20 8 -20 0 0 -8 -6 -8 -20 0 -12 6 -20 7 -20 1 0 -6 -11 -6 -30 -1 -16 5
-30 5 -30 1 0 -4 -27 -4 -60 -1 -33 3 -60 3 -60 0 0 -3 -27 -3 -60 0 -33 3
-60 3 -60 -1 0 -4 -13 -4 -30 1 -19 5 -30 5 -30 -1 0 -6 -8 -5 -20 1 -14 8
-20 8 -20 0 0 -8 -6 -8 -20 0 -14 8 -20 8 -20 0 0 -8 -6 -8 -20 0 -14 8 -20 8
-20 0 0 -8 -6 -8 -20 0 -14 8 -20 8 -20 0 0 -8 -6 -8 -20 0 -14 8 -20 8 -20 0
0 -8 -6 -8 -20 0 -14 8 -20 8 -20 0 0 -8 -6 -8 -20 0 -11 6 -20 7 -20 2z"/>
</g>
</svg>
