<?xml version="1.0" encoding="UTF-8"?>
<svg width="91.975mm" height="134.48mm" version="1.1" viewBox="0 0 91.975 134.48" xmlns="http://www.w3.org/2000/svg" xmlns:cc="http://creativecommons.org/ns#" xmlns:dc="http://purl.org/dc/elements/1.1/" xmlns:rdf="http://www.w3.org/1999/02/22-rdf-syntax-ns#">
 <metadata>
  <rdf:RDF>
   <cc:Work rdf:about="">
    <dc:format>image/svg+xml</dc:format>
    <dc:type rdf:resource="http://purl.org/dc/dcmitype/StillImage"/>
    <dc:title/>
   </cc:Work>
  </rdf:RDF>
 </metadata>
 <g transform="translate(-64.555 -32.317)">
  <path d="m114.06 166.75-0.52917-0.0431-9.8573-0.39901-9.3131-5.2073-5.1004-3.7042-1.6083-1.1906-1.6083-1.1906-2.5218-3.4396-4.1956-6.8792-4.2495-7.2813-1.0661-3.5666-0.68875-2.3198-0.68875-2.3198-0.67211-2.3104-0.67211-2.3104-3.3641-11.642-1.3572-5.9149v-0.30283h0.79375v-2.8182l1.3001-1.2214 0.55654-2.7073-0.10663-3.175-0.10663-3.175-0.18468-0.45295-0.18468-0.45295-0.98238-0.31179-0.32731-1.0313h-0.42931l-0.54795 1.4552-0.61873 1.8521-0.15676 3.4396-0.15676 3.4396-0.8651-3.4396 0.60845-2.5135 0.60845-2.5135 1.7947-7.6729-1.5102-10.848-0.014-2.4249 2.4048-5.7772 2.8366-6.8792 6.4398-12.965 8.5594-8.6386 3.9688-2.0037 2.1167-0.6799 4.1157-1.8017 6.7322-0.77319 8.9958-0.32567 4.4979 0.81825 3.175 0.35018 5.3543 1.2527 6.5519 1.891 4.4153 1.5841 1.015 0.54322 5.7236 4.079 6.3176 7.4083 0.94685 1.1906 0.94684 1.1906 3.2127 6.35 2.1606 4.2187v14.415l-3.7295 14.174-0.53164 1.5875-0.53165 1.5875-0.27561 1.3885-0.27562 1.3885-0.45535-0.28142-1.1699 2.5315-0.10844 2.1167-0.10843 2.1167-0.0592 1.3229 0.0772 2.249 0.0772 2.249 0.21183-0.66146 0.21184-0.66145 0.0264-1.7465 0.0264-1.7464 0.49198-1.5342 0.37326-3.7042 0.11466 0.31893 0.11467 0.31894-0.41499 3.3959-0.415 3.3959v2.2771l-2.6268 6.6974-2.461 9.2604-0.34887 1.4552-0.34886 1.4552-4.2942 14.023-1.8457 3.0736-1.8457 3.0736-1.102 0.99659-0.99831 1.956-0.33894 0.21263-0.33894 0.21262-0.96468 1.5875-2.0449 1.8521-2.0487 3.4396-5.0669 4.2333-8.9121 3.5759-0.52916-0.0431zm-9.5514-9.5656 0.29102-0.0974 0.055-2.0719 1.089-3.3136-0.51134-0.27366-0.51133-0.27366-0.51824 0.32028-0.0562-0.69268-0.076-1.0575-2.3812-0.3241-0.52916 0.20767-1.4552 2.0522v0.54666l1.109 1.8797 1.4045-0.3254 0.66146-0.83142v-1.8157l0.74243 0.61616-0.0505 0.9816-0.0504 0.9816-0.19416 0.31416-0.19417 0.31417 0.34822 2.2811 0.53634 0.67908zm7.8569-0.97859h0.27124l-0.0821-0.97174-0.0821-0.97173-0.29705-0.0974-0.29704-0.0974-0.15239 0.58276-0.1524 0.58277 0.26031 0.48638 0.26031 0.4864zm4.7878-1.5875h0.21402l-0.016-0.39688-0.38945-0.51494-0.38945-0.51495-0.65948 0.66864 0.51359 0.37906 0.51359 0.37907h0.21402zm-16.719-0.26459h0.26459v-0.52916h-0.52917v0.52916zm13.983-1.9888 0.13671-0.1367-0.3131-0.31309-0.31309-0.31309v0.5468l0.35278 0.35278zm6.8096-3.8512 0.3267-0.27114 0.34292 0.55486h0.5336l-0.17718-0.55826-0.17719-0.55826 0.46412-1.0292 0.46413-1.0292h0.44879l8e-3 -0.7276 8e-3 -0.72761 0.77692-1.0272v-0.90967l2.2201-2.8256 0.66208-0.52916 0.40712-1.1906 0.40713-1.1906 4e-3 -1.8858 4e-3 -1.8858-0.35565-0.29516-0.35565-0.29517-2.6841-0.1168-1.0849 1.3038-9e-3 0.35686-9e-3 0.35687-0.74488 0.70147-0.74489 0.70146-1.5529 2.8967-0.4753 0.53603-0.4753 0.53602-0.3846 0.41907-0.38459 0.41908v0.60631l-2.249 1.1603-0.59531 0.0686-0.59531 0.0687v-0.38723l0.29971-0.29972 0.29972-0.29972-0.20809-0.4808-0.20808-0.48081 0.1146-0.92604-0.43014-0.0312-2.0183-0.1538-0.43031-0.43031-0.4303-0.43031 0.18106-0.18107 0.18107-0.18106 1.0516 0.95173 0.36004-0.2988 0.36003-0.29881 0.29663 0.29663 0.4797-0.81207 0.4797-0.81206h0.64843l0.16017 0.25916 0.16018 0.25916 1.034-0.64571 0.81782-1.7234-0.17208-0.91725-0.17208-0.91726-0.73575-0.61061-1.2059 0.79016-2.6883-0.25831-1.1034 0.59051-0.16397-0.2653-0.16397-0.26531h-0.99587l-0.35554-0.57528 0.6021-0.6021 0.51897 0.3241 0.51897 0.32411h0.76971l0.16635-0.26917 0.16636-0.26917-2.1962-2.495-2.0741-0.95084-0.0399-0.58762-0.0399-0.58763 0.0607-0.75659 0.0607-0.75658-0.68072 0.2269-0.1308 2.08-1.479 1.188-1.3232 2e-3 -1.1244 1.0278-1.1244 1.0278v0.99305l-5.1594-0.0672-0.92418 0.80312 0.56732 0.68358 0.73424 2.7834-0.24185 0.24185-0.53261-0.482-0.53261-0.48201-1.1577-0.57719-2.1459-2.7152-2.2657-0.60285-0.29868-0.65554-0.29868-0.65555h-0.4082l-1.0379 1.4575-0.15181 1.454-0.15181 1.454-0.16675 1.2453-0.16675 1.2453 0.70521 0.17699 0.70521 0.177 1.2869 2.9098v0.60062l1.0272 0.64148 0.16344 2.2639 1.1656 0.1658 0.12021 0.44626 0.12021 0.44626 0.16394 0.73563 0.16394 0.73563 1.5734 0.31466v0.53226l1.9154-0.31082 2.3703-2.4042h0.94122l0.30728 0.37024 0.30728 0.37025 6.4617 0.0336 2.66 0.3305 3.0312-1.0233 0.29566 0.35626 0.29567 0.35625h0.69055l1.0878-1.383 0.78571 0.30151 0.31276-0.50606h0.91066l1.7469-1.8521h0.68596l0.62434 0.75228-0.26821 0.48376-0.26822 0.48375-0.40843 1.4959-0.40844 1.4959v1.0034l0.62241 0.62241 0.3267-0.27114zm-23.174-2.0975h-0.26458v-0.56039l0.52917 0.32704v0.23335zm2.8443-5.2957-0.46303 4e-3 -1.0302-1.0302-0.83548-1.6156h-0.51558v-1.0583h0.47256l0.15229 0.39687 0.1523 0.39688h0.86925l-0.16797-0.89535-0.16797-0.89534 0.93553-0.359 1.0812 1.3559h2.4674l0.23252 0.41548 0.23252 0.41549 3.9026-0.012 0.68438 0.56798 1.5921-0.11517 1.5921-0.11516-0.40475 0.39135-4.4979 0.0604-3.4396-0.34265-0.50271-0.47163h-0.74453l0.15229 0.39687 0.1523 0.39688h-0.45085l-0.38352 1.1906 0.0852 0.48068-0.68939 0.43726-0.46302 4e-3zm8.5493-7.7185-0.34726 0.11575 0.11575-0.34726 0.11576-0.34727 0.69453-0.23151-0.11575 0.34727-0.11576 0.34726zm-3.3238-0.53114-0.79375-0.01 0.46805-0.12198 0.46806-0.12197 0.65139 0.26355-0.79375-0.01zm9.9219 5.8724h0.26458v-0.52917h-0.52916v0.52917zm-27.998-3.175h0.24736l-0.15958-2.9104h-0.87248l-0.32073 0.8358 0.33708 1.4132 0.521 0.66146zm-6.5367-2.9104h0.39008l0.42029-0.81276 0.42029-0.81275-0.60797-0.73256 0.18047-0.29201 0.18047-0.292 0.33134 0.45312 0.33134 0.45313 0.60944-0.37665v-0.94983l0.66146-0.71373 0.66146-0.71372v-0.80194l2.758-3.1332 0.54488 0.54488-0.774 0.47836 0.17818 0.17817 0.17818 0.17818 0.85675-0.85675h0.75595v-0.52916h-0.635l0.67062-0.66146 0.31292 0.39687 0.31292 0.39688 1.4879 0.76835 1.0317-0.64431 1.3292 0.87089 0.48864 0.85715 0.90612-0.55644 0.93852-1.75 1.094-0.76629v-0.76375h1.3229v-1.149l-0.72267-0.83542-0.17287-0.7276-0.17287-0.72761h1.0562l0.88942 1.3574 2.7373-0.1268 0.7373 0.50917 0.73729 0.50917 1.0031 0.92604 1.0031 0.92604 0.96376 0.79375 0.65387 6e-3 0.34703 0.47458 0.34702 0.47458 2.1965-0.49353 3.1959-2.8132 4.24-0.0298 0.86523-0.86562 0.86523-0.86561v-4.0823l0.89587-0.1726 0.18989 1.0087 0.18989 1.0087-0.28632 1.9844-0.28631 1.9844 0.37609 0.4177 0.37609 0.41771v0.59489l0.30706 0.67391 0.30705 0.67391h0.70881v0.77513l1.1037 0.59066 0.15614-0.15615 0.15615-0.15614 0.61845 0.58099 0.61844 0.581 0.6154-0.6154 0.36147 0.29999 0.36147 0.3 0.29999-0.3 0.29999-0.29999 0.66668 0.5533 0.99338-0.53164 1.2894 0.73855 1.0676 0.57902 1.1548 1.9699 1.1548 1.9699h1.2529v0.56597l0.59532-0.0846 0.59531-0.0845 0.0783-0.67155 0.0783-0.67156 1.034-0.64575v0.79824h0.59532l-0.30358-1.5179 0.20196-0.76241 0.20197-0.7624 0.67369-0.32753 0.6737-0.32752 0.16537-1.407 0.16537-1.407-0.42122-1.558 0.10145-0.46302 0.10144-0.46303h0.49037v0.52917h0.52253l1.3613-2.1565-0.50467-0.62166 0.0999-3.5719 0.0999-3.5719 0.18221-0.92605 0.1822-0.92604 0.0914-0.7276 0.0914-0.72761 0.1984-2.1167 0.0283-0.26459 0.0283-0.26458h0.76252l0.18077-0.29249 0.18077-0.2925 0.65822-4.4566-0.34994-1.7053h-3.4914l-2.8777-3.0427h-1.1487v-0.42939l-1.0923-1.1725-2.4796 0.04652-3.4396-0.0122-0.92604 0.2802v0.75809h-0.52917v-0.79358h-1.0961l-0.82807 0.82808-2.0446-0.34542v0.47454l0.3573 0.48863 0.35729 0.48863 4.1075-0.31065 1.1311-1.0595 0.90406 0.50807-0.15966 0.41608-0.15966 0.41608 1.0705-0.66854 3.4919 1.4841 0.83545 1.2751 0.51444-0.16328 0.51445-0.16328v0.5336l-0.54296 0.33557 0.073 0.70773 0.073 0.70773 0.719 0.56414-0.0973 0.50503-0.0973 0.50504-1.2574 0.62689-0.19519 0.31583-0.1952 0.31582-1.0873-0.5819-0.36659 0.14068-0.36659 0.14067-0.87789-0.97005-2.5283 0.105-2.249 0.38493v-0.84276l-0.49437-0.26458-0.49438-0.26459-0.33496 0.33496-0.59491-0.29807-0.59492-0.29808-1.2612-0.1544-0.43606-1.4552-0.43606-1.4552-1.0715-0.15566-0.7127 0.66051-0.71271 0.66051v1.3833l-1.4144-0.1674-0.10662-0.32477-0.10661-0.32477 1.363-1.2632v-0.39234l1.3607-1.0703-0.25759-0.25758-0.25758-0.25758-0.75347 0.52986-0.75348 0.52986-2.2846 0.32924-1.2552 1.4433-0.9581-0.60203 0.0898-1.7553 0.74236-0.55313 0.28909-0.52234 0.28909-0.52233-0.25726-0.48068-0.25725-0.48068 0.5632-1.7751 0.56319-1.7751 1.0192-1.2477 0.87152 0.33443 1.0153-0.9188 13.407-0.10536 0.97896-0.49967 4.0427 0.53173 0.85207-0.32697v-3.4434l1.0564-1.7326 1e-3 -1.457 1e-3 -1.457 0.2679-0.9243 0.26789-0.9243 0.15515-1.9844 0.15514-1.9844-0.0282-2.6458-0.0408-6.35-0.85738-1.9844h-0.93469l-0.92094-0.3534 0.1569 0.78447 0.15689 0.78447-0.22707 0.3674-0.22706 0.3674-0.3509-0.29793-0.35089-0.29793-1.8521-2.2529-1.8521-2.2529-0.7276-0.01188-0.72776-0.01189v0.46679l-2.249 0.0498-1.4858-0.59347-1.4819 1.0956-1.7274-1.0505-0.78374 0.30075 0.30288 0.78929h-0.44343l-2.5827-2.0271-2.226-0.8699-0.15936 0.25786-0.15937 0.25786 0.16014 0.25911 0.16015 0.25912-0.57226 1.0693-1.7012-0.0168-1.0272-0.77692h-0.71138l-4.9614-2.3812-1.5021-0.0064-4.7625-1.5264-2.7781-2.7655v-0.4033l-0.68442-0.44845-0.68441-0.44845-0.23848 0.23848 0.6811 1.5236 1.0585 0.88049-0.16951 0.17024-0.16952 0.17024-2.9608-2.4116h-0.42647l-2.3472-2.3917-0.40282 0.16028-0.40283 0.16028-0.98003 0.19904-0.664 0.55108-1.6633-0.33265v-0.7276h-0.68792l-0.635 0.635v1.1868l-1.143 2.0146-2.4186 2.5233-0.66778-0.25625-0.54227 0.64334-1.1996 1.8521-1.1316 0.16374-0.57235 1.6419 0.12293 0.12293 0.12293 0.12293-0.72945 1.4106-0.29324 1.7086-0.29324 1.7086-1.0225 4.2333-0.19566 9.9102 0.69338 1.9961-0.58232 1.7859 0.57865 1.9182 0.16546 1.0583 2.3448-0.1549 0.91631-0.82925 2.0108 0.29312 3.7042 0.59972 2.6458-0.33923 4.56-0.1563 0.27851-0.17213 0.27852-0.17213 0.97238 1.2362 2.3773 0.08519 0.43979 0.53307 0.43978 0.53307 0.84022-0.32243v1.3363l0.1606 0.41851 0.1606 0.41852h0.72355l0.79424 1.5359-0.10473 1.018-0.10474 1.018-0.1816 0.46302-0.18161 0.46302h-0.1952l-1.7326-1.0564-0.33516-0.0022-0.27676 1.0583h-0.54091l-0.85675-0.85675-0.14629 0.1463-0.1463 0.1463 1.0467 1.1235 1.2555-0.1125 0.86598 0.0823 0.11723 0.79877 0.11724 0.79877-0.65908 0.54698-0.34474-1.0862h-0.38768l-0.54204 0.54204-2.4425-1.865h-0.56091l2e-3 0.19844 2e-3 0.19844 1.5812 2.6458 0.85959 1.1906h-1.1229v-1.0035l-0.93525-0.82116-0.93524-0.82116h-0.76063l-1.1166 2.5955-1.1196 0.29278-0.27927-0.23177-0.27927-0.23178-2.1148 0.1452-1.0583 0.39126-0.65907 0.1963-3.0421-0.56236-1.6798 0.90462-0.60956-0.42695-0.60935-0.42681h-1.4698v-0.23806l1.6662-2.4688 1.6856-1.6856 2.3367-0.82651 2.8391-0.66635 1.1297 1.3312 2.5335 0.31341 2.3612-0.63154v-0.41942h-2.3812v-1.3025l-2.0651-0.55607-1.5068 0.61593-5.0271 0.0678-0.52917 0.30811-3.175 0.91968-1.3229 0.60851-0.73235 0.76067-0.73235 0.76067-2.2395-0.3538-1.0091-1.0007-0.11558-1.7544 0.26475-0.45337 0.40517 0.65558 0.35931-1.1321-1.6074-1.6074-0.78903 1.8884 0.21425 0.57918 0.21425 0.57918-1.2782 2.8902-0.14224 2.1565 0.40238 1.1234-0.2837 0.2837-0.2837 0.2837 0.34542 1.2337 0.34542 1.2337 1.3704 1.2707 0.02058 3.1372 0.94755 1.047-0.13969 3.0918-0.13969 3.0918-0.75347 0.60745-0.14048 0.59217-0.14048 0.59216 1.0415 1.3241-0.17304 0.27999-0.17304 0.27998-0.74038-0.61446-0.1763 0.45943-0.1763 0.45943 1.0078 0.57094 1.0119 0.025 0.1114 0.33072 0.1114 0.33073h-0.28663l-0.28663-1e-5v0.88847l0.62854 1.7382-0.81269 0.94522-0.16746 0.47149-0.16745 0.4715 0.59521 0.22629 0.59521 0.2263 0.74329 3.3504 1.324 1.324-0.06027 1.1643-0.06027 1.1644 1.3506-0.33899v1.8622zm41.854-5.2255 0.13345-0.33073-0.2669-0.66146v1.3229zm10.906-24.672h0.26459l0.16352-0.26458 0.16352-0.26459h-0.52917l-0.16352 0.26459-0.16352 0.26458zm-4.5054-1.9842 0.69726-0.175 0.66442-0.55142v-0.55499l-0.87576-0.96771h-0.70464l-0.39867 0.95415-0.39866 0.95415 0.15939 0.25791 0.1594 0.25791zm-3.9144-1.9845h0.24897v-1.0583h-0.49794l-0.32704 0.52917 0.32704 0.52917zm-35.518-0.56165 0.34856 0.03248-0.17112-0.59531-0.17112-0.59531-0.26805-0.95689-1.1452 0.16314-0.07689 0.66146-0.07689 0.66146 1.2121 0.59648zm3.7894-1.7101 0.22768-0.14071v-0.49794h-0.79375v0.44097l0.1692 0.1692 0.1692 0.1692zm37.385-36.44 0.28112-0.09371v-0.7424l-0.92604-0.17834v0.74436l0.3638 0.3638zm-14.337-0.46326 0.19844 0.01677v-0.79375h-1.5875v0.28164l1.1906 0.47857 0.19844 0.01678zm0.18227-3.8476 0.11696-0.11696-0.88194-0.88194-0.18543 0.18542-0.18542 0.18542 1.0189 0.74502zm-9.2442-0.10436h0.26458v-0.79375h-0.52916v0.79375zm19.33 0h0.51355v-0.52917h-1.3541l0.16352 0.26458 0.16352 0.26458zm-23.68-1.8521h0.11668v-0.52917h-0.5604l0.32704 0.52917z" stroke-width=".26458"/>
 </g>
</svg>
